<?xml version="1.0" encoding="UTF-8"?>
<svg width="18px" height="19px" viewBox="0 0 18 19" version="1.1" xmlns="http://www.w3.org/2000/svg" xmlns:xlink="http://www.w3.org/1999/xlink">
    <!-- Generator: Sketch 52.2 (67145) - http://www.bohemiancoding.com/sketch -->
    <title>Group 4</title>
    <desc>Created with Sketch.</desc>
    <g id="UI_Desktop" stroke="none" stroke-width="1" fill="none" fill-rule="evenodd">
        <g id="00b_SkillCorner_Desktop_Homepage" transform="translate(-427.000000, -896.000000)" fill="#42B760">
            <g id="Group-4" transform="translate(425.000000, 894.000000)">
                <polygon id="Path" transform="translate(10.876013, 11.876013) rotate(-315.000000) translate(-10.876013, -11.876013) " points="11.5820315 2.99084016 13.670446 5.07925471 14.6689065 4.08079419 10.8760133 0.287901018 7.08312005 4.08079419 8.08158058 5.07925471 10.1699951 2.99084016 10.1703543 20.7613513 8.08213273 18.6731074 7.08374111 19.6715069 10.8763238 23.4641255 14.6689065 19.6715069 13.6705149 18.6731074 11.5822933 20.7613513"></polygon>
                <polygon id="Path" transform="translate(10.876013, 10.876013) scale(-1, 1) rotate(-315.000000) translate(-10.876013, -10.876013) " points="11.5820315 1.99084016 13.670446 4.07925471 14.6689065 3.08079419 10.8760133 -0.712098982 7.08312005 3.08079419 8.08158058 4.07925471 10.1699951 1.99084016 10.1703543 19.7613513 8.08213273 17.6731074 7.08374111 18.6715069 10.8763238 22.4641255 14.6689065 18.6715069 13.6705149 17.6731074 11.5822933 19.7613513"></polygon>
            </g>
        </g>
    </g>
</svg>