<?xml version="1.0" encoding="UTF-8"?>
<svg width="18px" height="18px" viewBox="0 0 18 18" version="1.1" xmlns="http://www.w3.org/2000/svg" xmlns:xlink="http://www.w3.org/1999/xlink">
    <!-- Generator: Sketch 52.2 (67145) - http://www.bohemiancoding.com/sketch -->
    <title>Shape</title>
    <desc>Created with Sketch.</desc>
    <g id="UI_Desktop" stroke="none" stroke-width="1" fill="none" fill-rule="evenodd">
        <g id="00a_SkillCorner_Desktop_Homepage" transform="translate(-1339.000000, -955.000000)" fill="#FFFFFF">
            <path d="M1339.45402,960.771802 L1342.96237,960.771802 L1342.96237,972.998847 L1339.45402,972.998847 L1339.45402,960.771802 Z M1341.11877,959.242413 L1341.09337,959.242413 C1339.82338,959.242413 1339,958.307722 1339,957.124088 C1339,955.91625 1339.84772,955 1341.14311,955 C1342.43744,955 1343.2333,955.913945 1343.2587,957.12063 C1343.2587,958.304264 1342.43744,959.242413 1341.11877,959.242413 L1341.11877,959.242413 Z M1357,973 L1353.02175,973 L1353.02175,966.671533 C1353.02175,965.015367 1352.39946,963.885901 1351.03104,963.885901 C1349.98436,963.885901 1349.40228,964.647714 1349.13135,965.384172 C1349.02975,965.646946 1349.04563,966.014599 1349.04563,966.383404 L1349.04563,973 L1345.10442,973 C1345.10442,973 1345.15522,961.790626 1345.10442,960.771802 L1349.04563,960.771802 L1349.04563,962.690741 C1349.27846,961.85171 1350.53786,960.654245 1352.54762,960.654245 C1355.04104,960.654245 1357,962.414138 1357,966.200154 L1357,973 L1357,973 Z" id="Shape"></path>
        </g>
    </g>
</svg>