<?xml version="1.0" encoding="UTF-8"?>
<svg width="20px" height="20px" viewBox="0 0 20 20" version="1.1" xmlns="http://www.w3.org/2000/svg" xmlns:xlink="http://www.w3.org/1999/xlink">
    <!-- Generator: Sketch 52.2 (67145) - http://www.bohemiancoding.com/sketch -->
    <title>Shape</title>
    <desc>Created with Sketch.</desc>
    <g id="UI_Desktop" stroke="none" stroke-width="1" fill="none" fill-rule="evenodd">
        <g id="00f_SkillCorner_Desktop_Homepage" transform="translate(-1580.000000, -76.000000)" fill="#FFFFFF">
            <path d="M1580.50447,82.4131131 L1584.40263,82.4131131 L1584.40263,95.9987194 L1580.50447,95.9987194 L1580.50447,82.4131131 Z M1582.35419,80.7137918 L1582.32596,80.7137918 C1580.91486,80.7137918 1580,79.6752465 1580,78.3600973 C1580,77.0180561 1580.94191,76 1582.38123,76 C1583.81938,76 1584.70367,77.0154949 1584.73189,78.3562556 C1584.73189,79.6714048 1583.81938,80.7137918 1582.35419,80.7137918 L1582.35419,80.7137918 Z M1600,96 L1595.57973,96 L1595.57973,88.9683698 C1595.57973,87.1281854 1594.88829,85.8732232 1593.36783,85.8732232 C1592.20484,85.8732232 1591.55809,86.7196824 1591.25706,87.537969 C1591.14417,87.8299398 1591.16181,88.2384428 1591.16181,88.6482264 L1591.16181,96 L1586.78269,96 C1586.78269,96 1586.83913,83.5451402 1586.78269,82.4131131 L1591.16181,82.4131131 L1591.16181,84.5452683 C1591.42051,83.6130106 1592.81985,82.2824946 1595.05292,82.2824946 C1597.82338,82.2824946 1600,84.2379306 1600,88.4446152 L1600,96 L1600,96 Z" id="Shape"></path>
        </g>
    </g>
</svg>