<?xml version="1.0" encoding="UTF-8"?>
<svg width="22px" height="13px" viewBox="0 0 22 13" version="1.1" xmlns="http://www.w3.org/2000/svg" xmlns:xlink="http://www.w3.org/1999/xlink">
    <!-- Generator: Sketch 52.2 (67145) - http://www.bohemiancoding.com/sketch -->
    <title>Path</title>
    <desc>Created with Sketch.</desc>
    <g id="UI_Desktop" stroke="none" stroke-width="1" fill="none" fill-rule="evenodd">
        <g id="00f_SkillCorner_Desktop_Homepage" transform="translate(-578.000000, -797.000000)" fill="#FFFFFF">
            <path d="M597.567515,802.5 L593.135686,798.176091 C592.859924,797.907044 592.859924,797.470833 593.135686,797.201785 C593.411448,796.932738 593.858548,796.932738 594.13431,797.201785 L599.793178,802.722853 C599.950827,802.876662 600.01835,803.085105 599.995749,803.285714 C600.01835,803.486324 599.950827,803.694766 599.793178,803.848576 L594.13431,809.369643 C593.858548,809.63869 593.411448,809.63869 593.135686,809.369643 C592.859924,809.100596 592.859924,808.664384 593.135686,808.395337 L597.567515,804.071429 L578,804.071429 C578,804.071429 578,803.719652 578,803.285714 C578,802.851776 578,802.5 578,802.5 L597.567515,802.5 Z" id="Path"></path>
        </g>
    </g>
</svg>