<?xml version="1.0" encoding="UTF-8"?>
<svg width="100px" height="142px" viewBox="0 0 100 142" version="1.1" xmlns="http://www.w3.org/2000/svg" xmlns:xlink="http://www.w3.org/1999/xlink">
    <!-- Generator: Sketch 49.2 (51160) - http://www.bohemiancoding.com/sketch -->
    <title>Group 3</title>
    <desc>Created with Sketch.</desc>
    <defs></defs>
    <g id="UI_Desktop" stroke="none" stroke-width="1" fill="none" fill-rule="evenodd">
        <g id="00b_SkillCorner_Desktop_Homepage" transform="translate(-379.000000, -362.000000)" fill="#42B760" fill-rule="nonzero">
            <g id="Group-3" transform="translate(379.000000, 362.000000)">
                <g id="Group">
                    <path d="M1.66666667,0 L16.6666667,0 L16.6666667,1.73170732 L1.66666667,1.73170732 L1.66666667,34.6341463 L0,34.6341463 L0,0 L1.66666667,0 Z" id="Combined-Shape"></path>
                    <path d="M85,107.365854 L100,107.365854 L100,109.097561 L85,109.097561 L85,142 L83.3333333,142 L83.3333333,107.365854 L85,107.365854 Z" id="Combined-Shape" transform="translate(91.666667, 124.682927) scale(-1, -1) translate(-91.666667, -124.682927) "></path>
                </g>
                <g id="Group" transform="translate(50.000000, 71.000000) scale(-1, 1) translate(-50.000000, -71.000000) ">
                    <path d="M1.66666667,0 L16.6666667,0 L16.6666667,1.73170732 L1.66666667,1.73170732 L1.66666667,34.6341463 L0,34.6341463 L0,0 L1.66666667,0 Z" id="Combined-Shape"></path>
                    <path d="M85,107.365854 L100,107.365854 L100,109.097561 L85,109.097561 L85,142 L83.3333333,142 L83.3333333,107.365854 L85,107.365854 Z" id="Combined-Shape" transform="translate(91.666667, 124.682927) scale(-1, -1) translate(-91.666667, -124.682927) "></path>
                </g>
            </g>
        </g>
    </g>
</svg>