<?xml version="1.0" encoding="UTF-8"?>
<svg width="20px" height="16px" viewBox="0 0 20 16" version="1.1" xmlns="http://www.w3.org/2000/svg" xmlns:xlink="http://www.w3.org/1999/xlink">
    <!-- Generator: Sketch 52.2 (67145) - http://www.bohemiancoding.com/sketch -->
    <title>Fill 1</title>
    <desc>Created with Sketch.</desc>
    <g id="UI_Desktop" stroke="none" stroke-width="1" fill="none" fill-rule="evenodd">
        <g id="00a_SkillCorner_Desktop_Homepage" transform="translate(-1281.000000, -958.000000)" fill="#FFFFFF">
            <path d="M1287.28992,973.789474 C1294.83736,973.789474 1298.96472,967.715386 1298.96472,962.44842 C1298.96472,962.27582 1298.96112,962.103998 1298.95304,961.933108 C1299.75416,961.370547 1300.45056,960.66857 1301,959.869297 C1300.2648,960.186519 1299.47352,960.400384 1298.6436,960.496825 C1299.49072,960.003429 1300.1412,959.222573 1300.44792,958.291888 C1299.65488,958.748449 1298.77712,959.080593 1297.84248,959.259331 C1297.09368,958.484615 1296.02728,958 1294.84728,958 C1292.58104,958 1290.74336,959.785134 1290.74336,961.98572 C1290.74336,962.29859 1290.77944,962.602679 1290.84984,962.894567 C1287.43968,962.72803 1284.4156,961.141839 1282.39208,958.730031 C1282.03936,959.318937 1281.83632,960.003429 1281.83632,960.73346 C1281.83632,962.116354 1282.5608,963.33714 1283.66232,964.051318 C1282.98928,964.031191 1282.35688,963.851519 1281.80384,963.552637 C1281.80296,963.569267 1281.80296,963.585976 1281.80296,963.603461 C1281.80296,965.534151 1283.21752,967.145753 1285.09496,967.511235 C1284.75032,967.602314 1284.38768,967.651506 1284.01328,967.651506 C1283.74888,967.651506 1283.49176,967.626016 1283.24192,967.579544 C1283.76424,969.16317 1285.27896,970.315569 1287.0752,970.348053 C1285.67048,971.417221 1283.90136,972.054309 1281.97888,972.054309 C1281.64776,972.054309 1281.3212,972.035891 1281,971.999055 C1282.81608,973.129617 1284.97224,973.789474 1287.28992,973.789474" id="Fill-1"></path>
        </g>
    </g>
</svg>