<?xml version="1.0" encoding="UTF-8"?>
<svg width="130px" height="33px" viewBox="0 0 130 33" version="1.1" xmlns="http://www.w3.org/2000/svg" xmlns:xlink="http://www.w3.org/1999/xlink">
    <!-- Generator: Sketch 52.2 (67145) - http://www.bohemiancoding.com/sketch -->
    <title>PPTV logo</title>
    <desc>Created with Sketch.</desc>
    <defs>
        <polygon id="path-1" points="0 32.1377 129.758 32.1377 129.758 -0.0003 0 -0.0003"></polygon>
        <polygon id="path-3" points="0 32.1377 129.758 32.1377 129.758 -0.0003 0 -0.0003"></polygon>
        <polygon id="path-5" points="0 32.1377 129.758 32.1377 129.758 -0.0003 0 -0.0003"></polygon>
        <polygon id="path-7" points="0 32.1377 129.758 32.1377 129.758 -0.0003 0 -0.0003"></polygon>
        <polygon id="path-9" points="0 32.1377 129.758 32.1377 129.758 -0.0003 0 -0.0003"></polygon>
        <polygon id="path-11" points="0 32.1377 129.758 32.1377 129.758 -0.0003 0 -0.0003"></polygon>
        <polygon id="path-13" points="0 32.1377 129.758 32.1377 129.758 -0.0003 0 -0.0003"></polygon>
        <polygon id="path-15" points="0 32.1377 129.758 32.1377 129.758 -0.0003 0 -0.0003"></polygon>
        <polygon id="path-17" points="0 32.1377 129.758 32.1377 129.758 -0.0003 0 -0.0003"></polygon>
        <polygon id="path-19" points="0 32.1377 129.758 32.1377 129.758 -0.0003 0 -0.0003"></polygon>
        <polygon id="path-21" points="0 32.1377 129.758 32.1377 129.758 -0.0003 0 -0.0003"></polygon>
        <polygon id="path-23" points="0 32.1377 129.758 32.1377 129.758 -0.0003 0 -0.0003"></polygon>
        <polygon id="path-25" points="0 32.1377 129.758 32.1377 129.758 -0.0003 0 -0.0003"></polygon>
    </defs>
    <g id="UI_Desktop" stroke="none" stroke-width="1" fill="none" fill-rule="evenodd">
        <g id="00e1_SkillCorner_Desktop_Homepage" transform="translate(-638.000000, -921.000000)">
            <g id="PPTV-logo" transform="translate(638.000000, 921.000000)">
                <path d="M12.3945,0 C19.8855,0 25.9585,6.073 25.9585,13.563 C25.9585,21.054 19.8855,27.129 12.3945,27.129 L12.3945,19.819 C15.8495,19.819 18.6505,17.019 18.6505,13.563 C18.6505,10.108 15.8495,7.307 12.3945,7.307 L12.3945,0 Z" id="Fill-1" fill="#009EE2"></path>
                <g id="Fill-3-Clipped">
                    <mask id="mask-2" fill="white">
                        <use xlink:href="#path-1"></use>
                    </mask>
                    <g id="path-1"></g>
                    <polygon id="Fill-3" fill="#FBBF00" mask="url(#mask-2)" points="0 7.3527 7.353 7.3527 7.353 -0.0003 0 -0.0003"></polygon>
                </g>
                <g id="Fill-5-Clipped">
                    <mask id="mask-4" fill="white">
                        <use xlink:href="#path-3"></use>
                    </mask>
                    <g id="path-1"></g>
                    <polygon id="Fill-5" fill="#009EE2" mask="url(#mask-4)" points="0 32.1377 7.353 32.1377 7.353 12.3907 0 12.3907"></polygon>
                </g>
                <g id="Fill-6-Clipped">
                    <mask id="mask-6" fill="white">
                        <use xlink:href="#path-5"></use>
                    </mask>
                    <g id="path-1"></g>
                    <path d="M42.8257,0 L42.8257,7.307 C46.2817,7.307 49.0837,10.108 49.0837,13.563 C49.0837,17.019 46.2817,19.819 42.8257,19.819 L42.8257,27.129 C50.3187,27.129 56.3897,21.054 56.3897,13.563 C56.3897,6.073 50.3187,0 42.8257,0" id="Fill-6" fill="#009EE2" mask="url(#mask-6)"></path>
                </g>
                <g id="Fill-7-Clipped">
                    <mask id="mask-8" fill="white">
                        <use xlink:href="#path-7"></use>
                    </mask>
                    <g id="path-1"></g>
                    <polygon id="Fill-7" fill="#FBBF00" mask="url(#mask-8)" points="30.431 7.3527 37.785 7.3527 37.785 -0.0003 30.431 -0.0003"></polygon>
                </g>
                <g id="Fill-8-Clipped">
                    <mask id="mask-10" fill="white">
                        <use xlink:href="#path-9"></use>
                    </mask>
                    <g id="path-1"></g>
                    <polygon id="Fill-8" fill="#009EE2" mask="url(#mask-10)" points="30.431 32.1377 37.785 32.1377 37.785 12.3907 30.431 12.3907"></polygon>
                </g>
                <g id="Fill-9-Clipped">
                    <mask id="mask-12" fill="white">
                        <use xlink:href="#path-11"></use>
                    </mask>
                    <g id="path-1"></g>
                    <path d="M74.4619,16.9385 L70.0409,13.1435 C71.5869,10.7155 72.4239,8.5815 72.8749,7.0285 C73.2549,5.7205 72.3379,4.3945 71.0559,4.3945 L68.9179,4.3945 L68.1339,0.8655 L64.6849,0.8655 L65.4689,4.3945 L61.1919,4.3945 L61.1919,7.1055 L69.1529,7.1055 C69.2949,7.1055 69.3959,7.2565 69.3409,7.3965 C68.7879,8.8275 67.7969,10.5295 66.4559,12.3635 C64.1489,15.5185 59.9779,18.7265 59.9289,18.7635 L61.7189,21.5945 C61.8359,21.5315 63.5869,20.2705 65.5489,18.4385 L65.5489,31.3645 L68.9979,31.3645 L68.9979,16.3315 L72.3069,19.3115 L74.4619,16.9385 Z" id="Fill-9" fill="#009EE2" mask="url(#mask-12)"></path>
                </g>
                <g id="Fill-10-Clipped">
                    <mask id="mask-14" fill="white">
                        <use xlink:href="#path-13"></use>
                    </mask>
                    <g id="path-1"></g>
                    <path d="M79.0391,5.2505 C79.0391,4.9425 79.2711,4.6925 79.5601,4.6925 L87.4881,4.6925 C87.7771,4.6925 88.0111,4.9425 88.0111,5.2505 L88.0111,21.0125 L91.6471,21.0125 L91.6471,4.4785 C91.6471,3.0155 90.5401,1.8305 89.1711,1.8305 L77.8771,1.8305 C76.5101,1.8305 75.4011,3.0155 75.4011,4.4785 L75.4011,21.0125 L79.0391,21.0125 L79.0391,5.2505 Z" id="Fill-10" fill="#009EE2" mask="url(#mask-14)"></path>
                </g>
                <g id="Fill-11-Clipped">
                    <mask id="mask-16" fill="white">
                        <use xlink:href="#path-15"></use>
                    </mask>
                    <g id="path-1"></g>
                    <path d="M86.8252,27.6094 L86.8252,21.6174 L84.4842,21.6174 C85.1562,19.9154 85.5722,17.9494 85.5722,15.6814 L85.5722,6.7584 L81.8812,6.7584 L81.8812,15.6814 C81.8812,25.0394 72.6022,28.2614 72.5182,28.2964 L73.8722,31.3644 C74.1882,31.2334 80.0752,29.3074 83.3762,23.8564 L83.3762,28.4384 C83.3762,29.9004 84.4842,31.0874 85.8522,31.0874 L92.9592,31.0874 L92.9592,28.1684 L87.3472,28.1684 C87.0572,28.1684 86.8252,27.9184 86.8252,27.6094" id="Fill-11" fill="#009EE2" mask="url(#mask-16)"></path>
                </g>
                <g id="Fill-12-Clipped">
                    <mask id="mask-18" fill="white">
                        <use xlink:href="#path-17"></use>
                    </mask>
                    <g id="path-1"></g>
                    <polygon id="Fill-12" fill="#009EE2" mask="url(#mask-18)" points="108.1572 7.6074 112.6602 7.6074 112.6602 4.8194 108.1572 4.8194 108.1572 0.8654 104.7082 0.8654 104.7082 11.3854 102.6462 11.3854 102.6462 3.2894 99.1992 3.2894 99.1992 11.3854 97.2972 11.3854 97.2972 14.0954 112.9172 14.0954 112.9172 11.3854 108.1572 11.3854"></polygon>
                </g>
                <g id="Fill-13-Clipped">
                    <mask id="mask-20" fill="white">
                        <use xlink:href="#path-19"></use>
                    </mask>
                    <g id="path-1"></g>
                    <path d="M119.6475,8.2593 L117.0185,8.2593 C115.6505,8.2593 114.5425,9.4463 114.5425,10.9073 L114.5425,23.4563 L117.9905,23.4563 L117.9905,11.5293 C117.9905,11.2203 118.2245,10.9703 118.5125,10.9703 L124.8335,10.9703 C125.1225,10.9703 125.3555,11.2203 125.3555,11.5293 L125.3555,23.4563 L128.8045,23.4563 L128.8045,10.9073 C128.8045,9.4463 127.6965,8.2593 126.3275,8.2593 L123.0965,8.2593 L123.6475,4.5413 L129.0965,4.5413 L129.0965,1.8303 L114.1045,1.8303 L114.1045,4.5413 L120.1985,4.5413 L119.6475,8.2593 Z" id="Fill-13" fill="#009EE2" mask="url(#mask-20)"></path>
                </g>
                <g id="Fill-14-Clipped">
                    <mask id="mask-22" fill="white">
                        <use xlink:href="#path-21"></use>
                    </mask>
                    <g id="path-1"></g>
                    <path d="M102.3486,16.2114 L98.9056,16.0684 C98.9036,16.1084 98.7106,19.6074 97.2576,23.6204 L100.5126,24.7214 C102.1416,20.2234 102.3416,16.3894 102.3486,16.2114" id="Fill-14" fill="#009EE2" mask="url(#mask-22)"></path>
                </g>
                <g id="Fill-15-Clipped">
                    <mask id="mask-24" fill="white">
                        <use xlink:href="#path-23"></use>
                    </mask>
                    <g id="path-1"></g>
                    <path d="M107.918,23.4229 L107.918,15.4129 L104.305,15.4129 L104.305,24.6029 L107.037,24.6029 C105.338,26.5399 102.448,28.1679 97.526,28.1679 L97.526,31.0869 C113.132,31.0869 112.914,18.4589 112.917,18.3309 L109.47,18.2469 C109.466,18.4469 109.455,20.9709 107.918,23.4229" id="Fill-15" fill="#009EE2" mask="url(#mask-24)"></path>
                </g>
                <g id="Fill-16-Clipped">
                    <mask id="mask-26" fill="white">
                        <use xlink:href="#path-25"></use>
                    </mask>
                    <g id="path-1"></g>
                    <path d="M123.3672,21.9336 C123.3922,21.6706 123.4082,21.4046 123.4082,21.1296 L123.4082,12.6226 L119.9592,12.6226 L119.9592,21.1296 C119.9592,25.9256 113.3542,28.0206 113.2952,28.0406 L114.3632,31.2126 C114.6182,31.1326 119.0882,29.7186 121.6462,26.3086 C122.9462,28.2566 125.1802,30.3776 128.9582,31.2486 L129.7582,28.0036 C124.9412,26.8936 123.6382,22.9686 123.3672,21.9336" id="Fill-16" fill="#009EE2" mask="url(#mask-26)"></path>
                </g>
            </g>
        </g>
    </g>
</svg>