<?xml version="1.0" encoding="UTF-8"?>
<svg width="22px" height="13px" viewBox="0 0 22 13" version="1.1" xmlns="http://www.w3.org/2000/svg" xmlns:xlink="http://www.w3.org/1999/xlink">
    <!-- Generator: Sketch 52.2 (67145) - http://www.bohemiancoding.com/sketch -->
    <title>Path</title>
    <desc>Created with Sketch.</desc>
    <g id="UI_Desktop" stroke="none" stroke-width="1" fill="none" fill-rule="evenodd">
        <g id="00f_SkillCorner_Desktop_Homepage" transform="translate(-530.000000, -657.000000)" fill="#FFFFFF">
            <path d="M549.567515,662.5 L545.135686,658.176091 C544.859924,657.907044 544.859924,657.470833 545.135686,657.201785 C545.411448,656.932738 545.858548,656.932738 546.13431,657.201785 L551.793178,662.722853 C551.950827,662.876662 552.01835,663.085105 551.995749,663.285714 C552.01835,663.486324 551.950827,663.694766 551.793178,663.848576 L546.13431,669.369643 C545.858548,669.63869 545.411448,669.63869 545.135686,669.369643 C544.859924,669.100596 544.859924,668.664384 545.135686,668.395337 L549.567515,664.071429 L530,664.071429 C530,664.071429 530,663.719652 530,663.285714 C530,662.851776 530,662.5 530,662.5 L549.567515,662.5 Z" id="Path"></path>
        </g>
    </g>
</svg>